<svg width="183" height="83" viewBox="0 0 183 83" fill="none" xmlns="http://www.w3.org/2000/svg">
<path d="M8.41 4.88H42.04L40.35 15.02L19.53 35.29H37.38L35.18 46.95H0L1.94 35.29L21.86 16.41H6.08L8.41 4.88Z" fill="#E9E9E9"/>
<path d="M72.56 24.33C72.04 14.83 59.76 14.83 59.76 14.83C49.15 14.39 43.33 20.46 43.33 20.46L49.54 27.06C50.8119 25.8779 52.3697 25.0473 54.06 24.65C60.6 23.26 60 27.18 60 27.18C56.58 27.25 49.53 28.39 49.53 28.39C35.24 30.99 37.53 47.39 49.53 47.96C55.74 47.77 58.19 44.23 58.19 44.23V47H69.72L72.24 30.53C72.5437 28.4782 72.6508 26.4021 72.56 24.33ZM54.56 39.44C54.56 39.44 50.27 39.44 52.13 36.03C52.65 35.49 54.03 33.79 59.56 34.12C59.53 34.12 59.63 39.11 54.53 39.44H54.56Z" fill="#E9E9E9"/>
<path d="M86.53 15.78H102.18L90.15 30.48H98.43L85.75 47.08H94.29L65.32 82.05L79.93 53.67H69.84L81.61 37.32H72.95L86.53 15.78Z" fill="#FFBB1A"/>
<path d="M95.32 28.07L104.38 17.46C104.38 17.46 108.32 13.21 117.44 16.26C117.44 16.26 124.23 19.07 124.44 28.07C124.65 37.07 118.91 44.57 113.67 46.07C113.67 46.07 107.27 49.8 98.67 44.89H90.67L100.24 33C100.24 33 100.92 36.52 104.38 36.9C105.37 36.9187 106.351 36.7144 107.251 36.3024C108.151 35.8905 108.947 35.2813 109.58 34.52C110.661 32.7929 111.077 30.7313 110.75 28.72C110.75 28.72 110.07 24.97 104.38 26.44C103.451 26.7351 102.637 27.3117 102.05 28.09L95.32 28.07Z" fill="#E9E9E9"/>
<path d="M98.19 46.62L95.62 61.02H86.06L98.19 46.62Z" fill="#E9E9E9"/>
<path d="M149.45 15.59H164.68L146.06 47.05H131.22L125.69 15.59H140.24L141.5 33.08L149.45 15.59Z" fill="#E9E9E9"/>
<path d="M167.5 15.78H181.27L175.65 47.05H161.77L167.5 15.78Z" fill="#E9E9E9"/>
<path d="M175.94 -3.06824e-06C175.94 -3.06824e-06 183.12 -0.410003 182.94 6.37C182.75 12.74 177.15 13.56 174.79 13.5C174.79 13.5 168.2 13.12 168.49 6.94C168.6 0.129997 175.94 -3.06824e-06 175.94 -3.06824e-06Z" fill="#E9E9E9"/>
</svg>
